<svg>
  <symbol xmlns="http://www.w3.org/2000/svg" width="100%" height="100%" viewBox="0 -960 960 960" id="send">
    <path
      d="M792-443 176-183q-20 8-38-3.5T120-220v-520q0-22 18-33.5t38-3.5l616 260q25 11 25 37t-25 37ZM200-280l474-200-474-200v140l240 60-240 60v140Zm0 0v-400 400Z">
    </path>
  </symbol>
  <symbol xmlns="http://www.w3.org/2000/svg" width="100%" height="100%" viewBox="0 -960 960 960" id="home">
    <path
      d="M240-200h120v-200q0-17 11.5-28.5T400-440h160q17 0 28.5 11.5T600-400v200h120v-360L480-740 240-560v360Zm-80 0v-360q0-19 8.5-36t23.5-28l240-180q21-16 48-16t48 16l240 180q15 11 23.5 28t8.5 36v360q0 33-23.5 56.5T720-120H560q-17 0-28.5-11.5T520-160v-200h-80v200q0 17-11.5 28.5T400-120H240q-33 0-56.5-23.5T160-200Zm320-270Z">
    </path>
  </symbol>
  <symbol xmlns="http://www.w3.org/2000/svg" width="100%" height="100%" viewBox="0 -960 960 960" id="search">
    <path
      d="M380-320q-109 0-184.5-75.5T120-580q0-109 75.5-184.5T380-840q109 0 184.5 75.5T640-580q0 44-14 83t-38 69l224 224q11 11 11 28t-11 28q-11 11-28 11t-28-11L532-372q-30 24-69 38t-83 14Zm0-80q75 0 127.5-52.5T560-580q0-75-52.5-127.5T380-760q-75 0-127.5 52.5T200-580q0 75 52.5 127.5T380-400Z">
    </path>
  </symbol>
  <symbol xmlns="http://www.w3.org/2000/svg" width="100%" height="100%" viewBox="0 -960 960 960" id="more-horiz">
    <path
      d="M240-400q-33 0-56.5-23.5T160-480q0-33 23.5-56.5T240-560q33 0 56.5 23.5T320-480q0 33-23.5 56.5T240-400Zm240 0q-33 0-56.5-23.5T400-480q0-33 23.5-56.5T480-560q33 0 56.5 23.5T560-480q0 33-23.5 56.5T480-400Zm240 0q-33 0-56.5-23.5T640-480q0-33 23.5-56.5T720-560q33 0 56.5 23.5T800-480q0 33-23.5 56.5T720-400Z">
    </path>
  </symbol>
  <symbol xmlns="http://www.w3.org/2000/svg" width="100%" height="100%" viewBox="0 -960 960 960" id="list">
    <path
      d="M320-600q-17 0-28.5-11.5T280-640q0-17 11.5-28.5T320-680h480q17 0 28.5 11.5T840-640q0 17-11.5 28.5T800-600H320Zm0 160q-17 0-28.5-11.5T280-480q0-17 11.5-28.5T320-520h480q17 0 28.5 11.5T840-480q0 17-11.5 28.5T800-440H320Zm0 160q-17 0-28.5-11.5T280-320q0-17 11.5-28.5T320-360h480q17 0 28.5 11.5T840-320q0 17-11.5 28.5T800-280H320ZM160-600q-17 0-28.5-11.5T120-640q0-17 11.5-28.5T160-680q17 0 28.5 11.5T200-640q0 17-11.5 28.5T160-600Zm0 160q-17 0-28.5-11.5T120-480q0-17 11.5-28.5T160-520q17 0 28.5 11.5T200-480q0 17-11.5 28.5T160-440Zm0 160q-17 0-28.5-11.5T120-320q0-17 11.5-28.5T160-360q17 0 28.5 11.5T200-320q0 17-11.5 28.5T160-280Z">
    </path>
  </symbol>
  <symbol xmlns="http://www.w3.org/2000/svg" width="100%" height="100%" viewBox="0 -960 960 960" id="add">
    <path
      d="M440-440H240q-17 0-28.5-11.5T200-480q0-17 11.5-28.5T240-520h200v-200q0-17 11.5-28.5T480-760q17 0 28.5 11.5T520-720v200h200q17 0 28.5 11.5T760-480q0 17-11.5 28.5T720-440H520v200q0 17-11.5 28.5T480-200q-17 0-28.5-11.5T440-240v-200Z">
    </path>
  </symbol>
  <symbol xmlns="http://www.w3.org/2000/svg" width="100%" height="100%" viewBox="0 -960 960 960" id="settings">
    <path
      d="M433-80q-27 0-46.5-18T363-142l-9-66q-13-5-24.5-12T307-235l-62 26q-25 11-50 2t-39-32l-47-82q-14-23-8-49t27-43l53-40q-1-7-1-13.5v-27q0-6.5 1-13.5l-53-40q-21-17-27-43t8-49l47-82q14-23 39-32t50 2l62 26q11-8 23-15t24-12l9-66q4-26 23.5-44t46.5-18h94q27 0 46.5 18t23.5 44l9 66q13 5 24.5 12t22.5 15l62-26q25-11 50-2t39 32l47 82q14 23 8 49t-27 43l-53 40q1 7 1 13.5v27q0 6.5-2 13.5l53 40q21 17 27 43t-8 49l-48 82q-14 23-39 32t-50-2l-60-26q-11 8-23 15t-24 12l-9 66q-4 26-23.5 44T527-80h-94Zm7-80h79l14-106q31-8 57.5-23.5T639-327l99 41 39-68-86-65q5-14 7-29.5t2-31.5q0-16-2-31.5t-7-29.5l86-65-39-68-99 42q-22-23-48.5-38.5T533-694l-13-106h-79l-14 106q-31 8-57.5 23.5T321-633l-99-41-39 68 86 64q-5 15-7 30t-2 32q0 16 2 31t7 30l-86 65 39 68 99-42q22 23 48.5 38.5T427-266l13 106Zm42-180q58 0 99-41t41-99q0-58-41-99t-99-41q-59 0-99.5 41T342-480q0 58 40.5 99t99.5 41Zm-2-140Z">
    </path>
  </symbol>
  <symbol xmlns="http://www.w3.org/2000/svg" width="100%" height="100%" viewBox="0 -960 960 960" id="close">
    <path
      d="M480-424 284-228q-11 11-28 11t-28-11q-11-11-11-28t11-28l196-196-196-196q-11-11-11-28t11-28q11-11 28-11t28 11l196 196 196-196q11-11 28-11t28 11q11 11 11 28t-11 28L536-480l196 196q11 11 11 28t-11 28q-11 11-28 11t-28-11L480-424Z">
    </path>
  </symbol>
  <symbol xmlns="http://www.w3.org/2000/svg" width="100%" height="100%" viewBox="0 -960 960 960" id="menu">
    <path
      d="M160-240q-17 0-28.5-11.5T120-280q0-17 11.5-28.5T160-320h640q17 0 28.5 11.5T840-280q0 17-11.5 28.5T800-240H160Zm0-200q-17 0-28.5-11.5T120-480q0-17 11.5-28.5T160-520h640q17 0 28.5 11.5T840-480q0 17-11.5 28.5T800-440H160Zm0-200q-17 0-28.5-11.5T120-680q0-17 11.5-28.5T160-720h640q17 0 28.5 11.5T840-680q0 17-11.5 28.5T800-640H160Z">
    </path>
  </symbol>
  <symbol xmlns="http://www.w3.org/2000/svg" height="100%" viewBox="0 -960 960 960" width="100%" id="history">
    <path
      d="M320-160q-33 0-56.5-23.5T240-240v-80q0-17 11.5-28.5T280-360h80v-90q-30-2-59.5-12.5T249-494q-6-6-9.5-13.5T236-523v-27h-29q-8 0-15.5-3t-13.5-9l-90-90q-12-12-12-28t12-28q29-29 78-42.5t90-13.5q27 0 52.5 4t51.5 15q0-23 16-39t39-16h345q33 0 56.5 23.5T840-720v440q0 50-35 85t-85 35H320Zm120-200h200q17 0 28.5 11.5T680-320v40q0 17 11.5 28.5T720-240q17 0 28.5-11.5T760-280v-440H440v24l229 229q9 9 11 20.5t-3 22.5q-5 11-14 17.5t-23 6.5q-8 0-15.5-3.5T612-412L510-514l-8 8q-14 14-29.5 25T440-464v104ZM224-630h52q17 0 28.5 11.5T316-590v46q12 8 25 11t27 3q23 0 41.5-7t36.5-25l8-8-56-56q-29-29-65-43.5T256-684q-20 0-38 3t-36 9l42 42Zm376 350H320v40h286q-3-9-4.5-19t-1.5-21Zm-280 40v-40 40Z" />
  </symbol>

  <symbol xmlns="http://www.w3.org/2000/svg" height="100%" viewBox="0 -960 960 960" width="100%" id="delete">
    <path
      d="M280-120q-33 0-56.5-23.5T200-200v-520q-17 0-28.5-11.5T160-760q0-17 11.5-28.5T200-800h160q0-17 11.5-28.5T400-840h160q17 0 28.5 11.5T600-800h160q17 0 28.5 11.5T800-760q0 17-11.5 28.5T760-720v520q0 33-23.5 56.5T680-120H280Zm400-600H280v520h400v-520ZM400-280q17 0 28.5-11.5T440-320v-280q0-17-11.5-28.5T400-640q-17 0-28.5 11.5T360-600v280q0 17 11.5 28.5T400-280Zm160 0q17 0 28.5-11.5T600-320v-280q0-17-11.5-28.5T560-640q-17 0-28.5 11.5T520-600v280q0 17 11.5 28.5T560-280ZM280-720v520-520Z" />
  </symbol>

  <symbol xmlns="http://www.w3.org/2000/svg" height="100%" viewBox="0 -960 960 960" width="100%" id="edit">
    <path
      d="M200-200h57l391-391-57-57-391 391v57Zm-40 80q-17 0-28.5-11.5T120-160v-97q0-16 6-30.5t17-25.5l505-504q12-11 26.5-17t30.5-6q16 0 31 6t26 18l55 56q12 11 17.5 26t5.5 30q0 16-5.5 30.5T817-647L313-143q-11 11-25.5 17t-30.5 6h-97Zm600-584-56-56 56 56Zm-141 85-28-29 57 57-29-28Z" />
  </symbol>
</svg>